<svg xmlns="http://www.w3.org/2000/svg" viewBox="0 0 936.888 936.888"><defs><style>.cls-1{fill:#fff;}.cls-2{fill:#df8fa6;}.cls-3{fill:#dbd3d5;}.cls-4{fill:#fdfdfd;}.cls-5{fill:#d75479;}.cls-6{fill:#231815;}</style></defs><g id="레이어_2" data-name="레이어 2"><g id="레이어_1-2" data-name="레이어 1"><circle class="cls-1" cx="468.444" cy="468.444" r="468.444"/><path class="cls-1" d="M268.387,481.6l-6.5,6.085c-1.746,1.635-3.5,3.272-5.367,4.762a46.394,46.394,0,0,1-19.369,9.04c-7.978,1.663-16.616,1.163-23.807-2.671s-12.647-11.324-12.835-19.47c-1.959-1.326-4.372.753-6.665,1.333-2,.507-4.092-.2-6.037-.895a26.377,26.377,0,0,1-6.75-3.166c-3.579-2.6-5.6-6.781-7.472-10.787-2.041-4.354-4.133-9.057-3.323-13.8.774-4.536,4.051-8.177,7.188-11.544l3.435-3.686a6.7,6.7,0,0,0,1.664-2.421,7.005,7.005,0,0,0,.159-2.432,78.891,78.891,0,0,1,3.054-25.711,9.294,9.294,0,0,0,.579-3.678,14.848,14.848,0,0,0-.975-2.993,11.872,11.872,0,0,1,.171-7.9,28.122,28.122,0,0,1,36.086-24.295,10.31,10.31,0,0,0,4.609.774c1.848-.317,3.269-1.768,4.494-3.188,4.794-5.558,9.056-12.113,15.793-15.027a36.507,36.507,0,0,1,5.779-1.771c6.576-1.623,8.553-2.8,15.316-2.424s15.428,2.182,19.382,7.682c.727,1.011,4.437,2.593,5.593,3.058,1.4.566,2.966-.081,4.4-.578a22.392,22.392,0,0,1,7.667-1.237c10.26.151,19.006,7.165,26.537,14.134,4.331,4.008,8.711,8.35,10.586,13.945,1.411,4.21,1.289,8.838,2.879,12.984,1.136,2.961,3.724,5.712,6.626,6.475a3.585,3.585,0,0,1,2.43,4.284,71.939,71.939,0,0,0-1.011,25.356c9.2-4.9,20.5-2,30.255,1.661,2.274.853,4.989,2.5,4.553,4.884-.244,1.335-1.431,2.251-2.463,3.134-7.452,6.376-10.1,16.69-11.254,26.43a45.575,45.575,0,0,0,.034,13.913c1.508,7.856,5.7,12.843,10.736,18.836a27.648,27.648,0,0,1-30.988,2.356,6.453,6.453,0,0,0-2.377-1.061,5.443,5.443,0,0,0-2.743.584,44.408,44.408,0,0,0-11.717,7.212c-1.756-1.408-4.3-.7-6.5-.227a24.317,24.317,0,0,1-16.483-2.346c-3.939-2.124-7.564-5.434-12.036-5.584-3.962-.134-7.668,2.308-11.631,2.2-4.193-.119-7.753-3.044-10.6-6.127a114.67,114.67,0,0,1-10.537-14.061c-.59-.878-1.187-2.046-.588-2.918"/><path class="cls-1" d="M465.284,772.615c3.73-2.623,12.828-19.224,14.585-23.433,8.991-21.531,10.979-32.9,4.862-55.421-1.782-6.556-4.8-12.7-7.8-18.791-3.076-6.245-6.181-12.538-10.44-18.045-5.586-7.222-12.949-12.832-20.223-18.353,3.158-3.919,5.586-6.163,8.744-10.082,3.9,1.888,9.356-.568,12.448-3.331s3.428-3.461,2.245-7.436a20.357,20.357,0,0,0-2.509-4.327c-.956-.946-2.858-2.785-3.753-3.788-3.183-3.565-5.705-6.457-6.609-11.638s.048-10.485,1-15.657c.339-1.848.76-3.843,2.178-5.074,1.22-1.058.644-3.912,1.535-5.258,1.345-2.03,2.129-2.119,1.057-4.306-4.838-9.876-1.886-17.855,4.832-26.561,1.019-1.321,5.327-3.5,5.636-5.135.532-2.817-4.5-5.923-3.364-8.052,1.348-2.53-7.415-3.642-10.257-4.015,2.293-3.877,3.778-5.909,4.574-10.343s1.7-7.4-1.81-10.225c-1.2-.968-3-2.985-4.123-4.046-1.467-1.388-4.158-6.241-5.575-7.68-6.825-6.934-14.682,4.468-22.3-1.581-.946-.751-4.569-.622-5.73-.954-2.811-.8-4.332-.356-6.15,1.933-4.091,5.148-10.992,6.949-17.395,8.446l-30.025,7.019c-3.214.752-6.646,1.494-9.75.37-2.388-.864-4.26-2.727-6.449-4.014s-5.18-1.908-7.137-.29c-1.5,1.24-1.928,3.426-3.387,4.715-1.545,1.365-3.821,1.391-5.883,1.343l-24.056-.564c-1.913-.044-4.055-.19-5.33-1.616-1.117-1.249-1.281-3.215-2.591-4.26-1.8-1.436-4.386-.284-6.618.28-8.2,2.071-16-4.855-24.433-5.443-3.348-.233-6.695.55-10.049.431-4.651-.165-9.162-2.055-13.811-1.835-8.13.384-14.772,7.338-17.32,15.069s-1.841,16.114-.932,24.2l-.284-.558c-2.842-3-7.9-2.829-11.451-.717s-5.938,5.69-8.145,9.185c-4.218,6.68-8.274,15.282-4.2,22.053.725,1.206,1.7,2.326,1.951,3.711.252,1.4-1.885,1.776-2.437,3.093-2.118,5.046-5.438,10.267-6.26,15.678s2.688,12.259,6.494,16.192c4.456,4.6,8.7,4.769,15.089,5.194-2.578,4.814-1.385,10.848-.77,16.274s3.681,10.727,8.555,13.188c3.511,1.773,8.556,3.031,8.686,6.961-9.967-1.063-15.08.961-24.906,2.943-1.865.376-8.8-.715-10.3.466-3.194,2.527-3.3,7.241-3.2,11.314.5,20.647-2.7,43.816-6.129,64.182,7.79,1.379,17.357-.984,25.216-.873l8.013.114,32.865.464c-5.174,14.229-6.637,27.7-9.8,41.614a55.458,55.458,0,0,0-1.7,15.921c.034.5.1,1.01.163,1.517a36,36,0,0,1,6.528,1.564q7.946,3.253,15.818,6.677l.1.047a3.721,3.721,0,0,1,.362.208c.29.188.566.4.856.6,20.864,1.342,36.169,10.922,45.869,24.43.118.024.235.051.353.076a65.977,65.977,0,0,1,18.51,3.844q4.488.956,8.957,1.99c12.007.654,22.24,3.948,30.586,9.24a76.713,76.713,0,0,1,18.014,10.992,62.53,62.53,0,0,1,9.015-3.405l17.492-2.351a50.258,50.258,0,0,1,16.6,2.185c9.636.2,19.341.447,29.053.52a72.434,72.434,0,0,0-7.629-13.731c-2.291-3.219-3.223-6.36-4.3-10.162s-2.244-12.441,1.231-14.323c2.523-9.535,4.054-13.47,3.369-21.143-.136-1.534-.321-3.183.432-4.526C462.577,774.191,464.043,773.487,465.284,772.615Z"/><path class="cls-1" d="M180.446,650.608c-1.695-3.476-5.159-5.7-8.546-7.566-4.976-2.743-10.8-5.168-16.2-3.4-1.889.619-3.643,1.734-5.621,1.925-1.911.183-4.331-.309-5.348,1.318l-.54-.819c-2.957.517-4.439,3.8-5.371,6.65-1.5,4.595-2.851,9.562-1.472,14.195a17.215,17.215,0,0,1,1.084,4.029,6.316,6.316,0,0,1-.065.846,58.279,58.279,0,0,1,18.677,19.04,57.293,57.293,0,0,1,20.014,13.783,12.633,12.633,0,0,0,2.558-11.082c-.325-1.215-.835-2.378-1.094-3.609-.728-3.454.58-6.966,1.111-10.455a23.857,23.857,0,0,0-.305-8.8,9.7,9.7,0,0,1-.431-3.437,13.212,13.212,0,0,1,1.585-3.659A10.475,10.475,0,0,0,180.446,650.608Z"/><path class="cls-1" d="M446.763,347.8c-2.962-.951-5.872,3.089-8.811,2.07-.894-.31-1.7-1.079-2.633-.924-.737.122-1.308.809-2.054.844-.709.034-1.285-.523-1.886-.9a7.8,7.8,0,0,0-4.307-.822,60.289,60.289,0,0,0-29.282,8.156,24.327,24.327,0,0,0-5.046,3.688,30.5,30.5,0,0,0-3.927,5.262c-3.184,4.974-6.435,10.118-7.469,15.933a2.46,2.46,0,0,1-.737,1.66,2.4,2.4,0,0,1-1.105.331,29.015,29.015,0,0,0-11.684,4.3,35.082,35.082,0,0,0-13.168,16.615,59.165,59.165,0,0,0-3.8,21.083c-.026,1.541.085,3.3,1.278,4.271,1.344,1.1,3.325.634,4.842-.151l11.449-.674c4.9-.288,10.175-.481,14.281,2.2,2.519,1.646,4.317,4.222,6.825,5.885,3.4,2.253,7.683,2.585,11.758,2.716,1.011.032,2.024.057,3.031.161a19.527,19.527,0,0,1,13.428,7.591c3.372,4.486,4.632,10.269,4.645,15.882s-1.125,11.154-2.116,16.678a9.352,9.352,0,0,0,.065,5.148,8.034,8.034,0,0,0,3.615,3.6,26.34,26.34,0,0,0,25.3.516c6.091,7.429,12.875,15.238,22.2,17.556a23.264,23.264,0,0,0,23.031-7.6,15.464,15.464,0,0,0,14.582-.23c2.773-2.318,6.014-4.781,9.6-4.3,2.563.347,4.646,2.14,6.784,3.594a30.125,30.125,0,0,0,29.867,1.947,11.278,11.278,0,0,1,4.109-1.55,8.837,8.837,0,0,1,3.2.542c5.082,1.569,9.992,3.753,15.212,4.768s10.993.714,15.346-2.34c1.4-.984,2.662-2.249,4.285-2.8,4.411-1.493,8.464,2.776,12.8,4.464,5.371,2.088,11.376.106,16.789-1.871A4.417,4.417,0,0,0,628.981,500c1.26-1.474.147-3.687-.832-5.362-6.916-11.836-5.416-26.892-.838-39.814,2.25-6.35,6.438-13.362,13.165-13.724,3.882-.209,7.521,1.989,10.309,4.7s4.991,5.971,7.764,8.695a28.467,28.467,0,0,0,22.159,7.977c-1.5,5.392,0,11.211,2.5,16.22,2.147,4.308,5.122,8.337,9.207,10.883,5.322,3.319,11.954,3.786,18.2,3.214a33.7,33.7,0,0,1,6.108-.289c3.627.329,6.936,2.12,10.418,3.188a26.652,26.652,0,0,0,31.9-14.072,13.038,13.038,0,0,1,1.987-3.47c1.211-1.3,2.975-1.884,4.582-2.638,3.762-1.763,6.972-4.685,10.035-8.572,4.638-7.031,7.4-15.561,6.326-23.916s-6.423-16.356-14.3-19.349a7.591,7.591,0,0,1-2.015-.958c-1.738-1.352-1.613-3.959-1.437-6.154a46.659,46.659,0,0,0-3.252-22.368c-3.046-6.975-8.46-13.061-15.441-16.092-4.911-2.133-11.24-3.453-12.96-8.523-2.837-8.365-10.406-14.6-18.842-17.221s-17.616-1.96-26.142.349c-1.68.455-3.486.969-5.117.363-12.009-4.46-25.522-6.2-37.609-1.954s-22.209,15.415-22.588,28.22c-.126,4.262-3.875,7.5-7.632,9.515s-8,3.53-10.705,6.824c-1.362,1.657-2.381,3.793-4.358,4.625s-4.912-1.282-3.7-3.052c.475-.693.263.359.372.871a55.516,55.516,0,0,0-22.091-31.725,9.909,9.909,0,0,0-2.978-1.548,14.516,14.516,0,0,0-4.121-.162,44.068,44.068,0,0,1-8.224-.827c-3.524-.58-7.192-1.217-10.08-3.32-2.113-1.539-3.629-3.738-5.235-5.8-2.38-3.056-5.138-5.968-8.664-7.572a28.52,28.52,0,0,0-8.852-1.959c-8.074-.863-16.507-1.384-24.061,1.593a54.71,54.71,0,0,0-6.049,2.98l-10.4,5.665c-4.955-6.852-14.113-8.86-22.435-10.362-4.411-.8-9.257-1.523-13.133.73-1.187.69-2.213,1.629-3.391,2.335-.33.2-.8.36-1.059.079s.417-.741.435-.357"/><path class="cls-1" d="M445.4,637.493c25.593,18.684,42.637,52.729,42.628,84.416,5.573-1.07,10.084-.19,11.491,5.321s-.249,11.269-1.346,16.851c-2.142,10.894-1.739,24.246-2.336,35.333-.57,10.569,4.994,18.265,8.433,27.494,2.238,6.006-4.028,8.916-6.088,14.985-1.916,5.646-5.344,11.222-8.2,17.214a235,235,0,0,0,34.908-3.674c30.85-5.89,62.6-17.03,91.552-29.182,41.259-17.319,90.81-36.107,124.832-63.527,3.705-17.614-3.414-38.762-10.762-51.855a181.878,181.878,0,0,0-21.294-29.389c-7.73-8.854-30.9-14.708-22.551-21.187,22.811-1.9,46.237-13.248,48.556-50.092.277-4.407,5.816-9.877-.49-25.131-3.028-7.323-.821-22.964-6.057-27.487-2.755-2.38-9.475-5.359-10.187-8.929-1.6-8.041,3.531-18.352-1.093-27.6-5.884-11.767-25.722-4.506-32.549-15.752-9.492,11.867-16.6,13.37-29.756,12.922-7.99-.273-14.988.952-23.5.952-2.172,0-2.811,1.235-4.827,2.042-9.345,3.738-28.016-4.959-29.3-2.713-1.7,2.966-13.589,4.837-14.368,4.837-6.452,0-19.53-5.008-23.677-5.008-4.362,0-20.184,7.026-32.522.432-3.287-1.756-5.006-6.34-8.727-6.545-5.5-.3-8.635,7.85-14.136,7.587-1.985-.1-3.771-1.334-5.753-1.479-3.7-.273-6.524,3.187-8.244,6.47a47.709,47.709,0,0,0-4.92,28.691l3.763,1.275c-9.962-2.2-24.752,4.845-26.012,14.968-.537,4.312-.409,8.284-.658,12.623-.419,7.287-3.516,13.89-6.129,20.706s.095,16.183,4.464,22.03c2.2,2.95,5.55,4.86,7.881,7.709s3.292,7.552.5,9.946A71.426,71.426,0,0,0,445.4,637.493Z"/><path class="cls-2" d="M383.656,500.981a21.75,21.75,0,0,1-8.437-10.374,42,42,0,0,1-2.763-13.25,44.6,44.6,0,0,1,.475-11.468A62.036,62.036,0,0,1,376.8,454.27c1.973-4.831,4.155-9.93,8.432-12.92,3.564-2.491,8.13-3.144,12.471-2.889a68.313,68.313,0,0,1,12.368,2.27,17.261,17.261,0,0,1,3.578,1.169,11.608,11.608,0,0,1,5.164,5.838,34.5,34.5,0,0,1,2.062,7.662c1.419,7.544,2.824,15.391.855,22.81a40.6,40.6,0,0,1-3.3,8.077c-2.493,4.85-5.576,9.652-10.228,12.5-7.2,4.4-16.351,3.187-24.676,1.824"/><polygon class="cls-2" points="254.508 494.578 260.76 489.162 267.16 482.746 273.617 495.271 273.617 497.098 254.508 497.098 254.508 494.578"/><path class="cls-2" d="M197.527,624.832c-1.84-1.175-4.151-1.24-6.334-1.27l-29.858-.4c-1.942-.026-4.012-.018-5.644,1.037a6.911,6.911,0,0,0-2.652,3.843c-1.261,4.079.283,9.037,3.98,11.172,2.544,1.469,5.63,1.5,8.514,2.055a23,23,0,0,1,10.517,5.053c3.8,3.238,6.566,8.636,4.535,13.2-.617,1.386-1.658,2.673-1.651,4.19.006,1.288.774,2.43,1.235,3.632,1.769,4.618-1.019,9.575-3.144,14.04a4.114,4.114,0,0,0-.566,2.429c.2,1.087,1.178,1.82,1.93,2.63,2.546,2.739,2.7,7.137,1.06,10.5a13.432,13.432,0,0,1-2.577,3.479,63.822,63.822,0,0,1,14.24,24.363,3.892,3.892,0,0,0,2.726-1.229,4.327,4.327,0,0,0,.609-1.618,191.637,191.637,0,0,0,4.242-22.788c.328-3.166.5-6.347.667-9.525q.192-3.58.383-7.161c.234-4.385.468-8.77.632-13.158.177-4.749.273-9.5.368-14.251l.207-10.322q.088-4.475.179-8.951C201.205,631.751,200.918,627,197.527,624.832Z"/><path class="cls-2" d="M635.114,442.162a65.917,65.917,0,0,0-11.467,24.024,24.74,24.74,0,0,0-.894,8.132,30.379,30.379,0,0,0,1.339,5.871l3.619,12.11c.577,1.929,1.246,4,2.866,5.191a9.228,9.228,0,0,0,4.951,1.323,189.314,189.314,0,0,0,27.269-.124c5.352-.411,11.042-1.2,15.1-4.712a13.779,13.779,0,0,0,4.62-11.516,27.073,27.073,0,0,0-1.464-5.887l-2.484-7.532c-.561-1.7-1.221-3.531-2.729-4.494a10.088,10.088,0,0,0-3.815-1.037,23.417,23.417,0,0,1-12.322-6.86,54.386,54.386,0,0,1-8.329-11.608,6.823,6.823,0,0,0-2.07-2.561,5.874,5.874,0,0,0-2.446-.711,25.612,25.612,0,0,0-11.58,1.276"/><path class="cls-2" d="M549.1,689.814q7.263,31.424,17.311,62.116c.57,1.741,1.216,3.581,2.654,4.716,2.108,1.662,4.7-1.813,7.238-2.679,8.275-2.822,15.682-9.215,23.709-12.679,5.1-2.2,11.88-2.333,17.386-3.025,7.9-.994,14.556.669,21.958,3.615a12.815,12.815,0,0,1,4.8,3.041c3.79,4.131,2.59,10.552,2.354,16.153-.032.757.029,1.655.673,2.056a2.065,2.065,0,0,0,1.743-.024c4.456-1.544,8.053-5.691,12.769-5.739,4.87-.049,9.688,1.728,13.647-1.11-1.107-1.86-1.514-1.386-1.527-3.551-.021-3.467,2.035-6.638,4.53-9.045s6.436-3.519,8.039-6.594c5.058-9.7,8.352-15.177,9.33-24.839.31-3.055-.059-6.055-.05-9.127a51.654,51.654,0,0,0-.92-7.39c-.4-2.776-1.921-5.244-3.453-7.593-4.356-6.678-9.18-13.261-15.705-17.843-10.4-7.3-24.455-8.611-36.426-4.356a44.782,44.782,0,0,0-21.109,15.8,16.33,16.33,0,0,1-3.866,4.359c-2.281,1.5-5.2,1.514-7.928,1.475l-46.041-.656c-1.5-.021-3.12,0-4.3.912-.6.463-2.7-.412-2.87-.47-1-.332-2.351.575-3.345.243s-.839.8-1.538,1.579.407,2.405,1.176,1.691"/><ellipse class="cls-2" cx="401.523" cy="587.628" rx="32.945" ry="32.383"/><ellipse class="cls-2" cx="245.214" cy="588.214" rx="32.945" ry="32.383"/><ellipse class="cls-2" cx="498.778" cy="588.014" rx="32.945" ry="32.383"/><ellipse class="cls-2" cx="648.807" cy="590.001" rx="32.945" ry="32.383"/><path class="cls-2" d="M127.815,596.317c-3.956,4.25-4.327,10.613-4.482,16.417l-.486,18.227a7.573,7.573,0,0,0,.391,3.258,5.793,5.793,0,0,0,2.81,2.643,12.192,12.192,0,0,0,10.081.393,3.189,3.189,0,0,0,1.823-1.481,15.785,15.785,0,0,0,.43-5.47c-1.208-3.843-.305-5.157.2-9.153.4-3.132-.557-6.283,1.463-8.708a9.359,9.359,0,0,1,8.341-3.52c2.856.45,6.475,1.255,7.208,4.052.383,1.459.545,6.055,1.183,7.421,1.355,2.9,3.737,2.05,6.922,2.4,7.405.811,14.931-.453,22.336.358,2.747.3,6.63.825,8.425-1.278,1-1.166.777-4.344,1.032-5.856.784-4.656,1.3-6.161.47-10.809s-3.607-9.233-8.021-10.909a20.688,20.688,0,0,0-6.494-.979c-9.9-.425-19.918-.841-29.632,1.12-2.187.441-2.716.176-4.936-.039-1.73-.167-5.06.029-6.765-.3-4.518-.878-9.053-.288-12.432,2.837"/><path class="cls-3" d="M155.242,592.2l-4.449-19.229-2.233-9.648a143.349,143.349,0,0,1-3.034-15.776,71.852,71.852,0,0,0-1.391-9.978c-.512-1.959-1.272-3.847-1.776-5.809A30.468,30.468,0,0,1,142.3,518.3a11.923,11.923,0,0,1,2.21-5.446c2.05-2.448,5.463-3.152,8.607-3.707a2.23,2.23,0,0,1,1.2.008,2.03,2.03,0,0,1,.963,1.077,20.5,20.5,0,0,1,1.578,6.052l11.594,75.3c.149.964.187,2.176-.657,2.664a2.469,2.469,0,0,1-1.4.186l-7.557-.477a5.547,5.547,0,0,1-3.069-.809,1.917,1.917,0,0,1-.408-2.792"/><path class="cls-3" d="M169.2,594.344a405.154,405.154,0,0,1-.653-83.87c.121-1.262.382-2.73,1.509-3.309a3.828,3.828,0,0,1,1.647-.3l18-.6a1.847,1.847,0,0,1,1.33.3,1.815,1.815,0,0,1,.447,1.116c1.331,8.837.545,17.836.007,26.757a478.128,478.128,0,0,0-.281,52.445c.142,2.863-.123,6.456-2.778,7.536a7.467,7.467,0,0,1-4.171-.037,53.787,53.787,0,0,0-14.4-.738"/><path class="cls-4" d="M172.02,506.991a3.676,3.676,0,0,1-2.841-2.22,9.77,9.77,0,0,1-.71-3.685c-.208-4.013.108-8.449,2.891-11.348,2.541-2.645,6.464-3.309,10.107-3.734a6.713,6.713,0,0,1,2.768.069,5.779,5.779,0,0,1,2.111,1.36,19.206,19.206,0,0,1,6.114,15.015,4.473,4.473,0,0,1-.956,2.9,5.071,5.071,0,0,1-3.176,1.152l-14.453,1.732a3.158,3.158,0,0,1-2.158-.255c-.614-.414-.746-1.525-.066-1.819"/><path class="cls-5" d="M409.3,496.423c-1.578,1.167-3.94.595-5.37-.751a12.693,12.693,0,0,1-2.82-5.105q-1.71-4.709-3.384-9.43a30.826,30.826,0,0,1-2.237-9.348c-.09-3.4.931-6.724,1.959-9.968,2.092-6.6,4.938-13.928,11.34-16.557a8.237,8.237,0,0,1,4.854-.577c3.782.841,5.864,4.88,6.97,8.594a48.653,48.653,0,0,1-7.256,41.951c-1.39,1.9-3.65,3.891-5.8,2.94"/><path class="cls-5" d="M645.245,692.164c-7.075,2.227-11.751,10.006-10.947,17.379s6.645,13.774,13.774,15.818,15.16-.075,20.776-4.92a12.891,12.891,0,0,0,3.559-4.492,15.369,15.369,0,0,0,.978-5.626c.157-4.775-.313-9.881-3.226-13.669-2.793-3.63-7.445-5.443-12.011-5.806s-9.125.546-13.615,1.451"/><path class="cls-5" d="M202.137,633.653c-.349-3.531-1.065-7.543-4.087-9.4-1.806-1.111-4.044-1.171-6.163-1.2l-26.64-.351c-3.219-.042-6.737.015-9.22,2.066-3.485,2.877-3.266,8.092-2.559,12.643a7.88,7.88,0,0,0,3.822,1.459,63.862,63.862,0,0,1,12.249,3.691,24.72,24.72,0,0,1,8.351,5.15,11.218,11.218,0,0,1,3.459,8.9c-.212,1.787-.976,3.469-1.243,5.249-.466,3.1.6,6.236.5,9.371-.151,4.671-2.877,9.108-2.333,13.749.492,4.2,3.519,8.814,1.007,12.221a9.179,9.179,0,0,1-2.911,2.275l-.248.145a63.773,63.773,0,0,1,15.25,26.028,6.577,6.577,0,0,0,3.379-1.946,9.8,9.8,0,0,0,1.767-4.274A263.972,263.972,0,0,0,202.137,633.653Z"/><polyline class="cls-1" points="183.365 507.706 183.417 593.825 191.675 594.175 191.452 507.83 184.017 507.393"/><polyline class="cls-1" points="147.021 509.689 154.453 508.708 169.199 592.637 162.335 593.901 146.056 509.351"/><path class="cls-5" d="M654.642,450.19c-3.389,1.852-5.2,5.675-6.21,9.4a38.4,38.4,0,0,0,2.945,27.473c2.319,4.467,5.758,8.629,10.464,10.413,7.34,2.784,17.624-.824,19.851-8.351,2.091-7.066-.352-12.745-1.643-22.438-.1-.746-.841-1.276-1.471-1.688-1.464-.958-3.389-.416-5.139-.448-3.754-.067-6.831-2.853-9.523-5.47l-8.679-8.436"/><path class="cls-6" d="M400.083,491.551a2.235,2.235,0,0,0,1.87-3.455c-.437-.672-10.57-16.685,1.453-35.548a2.233,2.233,0,1,0-3.766-2.4c-13.617,21.363-1.927,39.631-1.422,40.4A2.224,2.224,0,0,0,400.083,491.551Z"/><path class="cls-6" d="M350.435,514c-11.852,0-21.5,14.4-21.5,32.1s9.643,32.1,21.5,32.1,21.5-14.4,21.5-32.1S362.288,514,350.435,514Zm0,59.741c-9.39,0-17.028-12.4-17.028-27.637s7.638-27.637,17.028-27.637a11.871,11.871,0,0,1,7.24,2.72,13.465,13.465,0,0,0-2.873.628A21.645,21.645,0,0,0,345.233,528a15.706,15.706,0,0,0-3.95,10.552,1.162,1.162,0,0,0,.154.646,1.218,1.218,0,0,0,.735.383l9.709,2.426-5.948,4.178c-1.135.8-2.355,1.715-2.671,3.067a5.247,5.247,0,0,0,.129,2.31c1.512,6.817,5.764,13.247,12.079,16.229a9.748,9.748,0,0,0,4.633,1.023C357.353,571.906,354.028,573.743,350.435,573.743Z"/><path class="cls-6" d="M342.157,585.007c-5.574,2.873-10.761,3.5-15.418,1.87-4.789-1.681-8.179-5.445-10.194-8.325,7.049-1.359,12.175-6.21,11.859-11.678-.349-6.049-7.228-10.581-15.457-10.276a46.064,46.064,0,0,0,1.477-11.608c0-17.7-9.643-32.1-21.5-32.1s-21.5,14.4-21.5,32.1,9.643,32.1,21.5,32.1a15.421,15.421,0,0,0,8-2.329,15.828,15.828,0,0,0,8.308,3.9c-2.1,2.51-5.816,6.075-10.473,6.931-3.533.645-7.12-.422-10.674-3.177a2.234,2.234,0,0,0-2.737,3.531,18.452,18.452,0,0,0,11.357,4.3,15.766,15.766,0,0,0,2.861-.264c6.2-1.139,10.872-5.741,13.364-8.788,2.395,3.409,6.429,7.81,12.292,9.881a20.25,20.25,0,0,0,6.78,1.16,26.626,26.626,0,0,0,12.2-3.263,2.233,2.233,0,0,0-2.047-3.969Zm-49.229-12.38c-9.39,0-17.029-12.4-17.029-27.637s7.639-27.637,17.029-27.637a11.868,11.868,0,0,1,7.271,2.683,13.228,13.228,0,0,0-3.051.667,21.642,21.642,0,0,0-9.57,6.181,15.706,15.706,0,0,0-3.95,10.552,1.162,1.162,0,0,0,.154.646,1.215,1.215,0,0,0,.736.382l9.709,2.427-5.949,4.178c-1.136.8-2.355,1.715-2.671,3.067a5.227,5.227,0,0,0,.13,2.309c1.511,6.818,5.763,13.248,12.078,16.229.065.031.133.057.2.087a8.13,8.13,0,0,0,.435,4.346A11.255,11.255,0,0,1,292.928,572.627Z"/><path class="cls-6" d="M601.628,514.2c-11.854,0-21.5,14.4-21.5,32.1s9.642,32.1,21.5,32.1,21.5-14.4,21.5-32.1S613.481,514.2,601.628,514.2Zm-17.029,32.1c0-15.24,7.64-27.637,17.029-27.637a12.455,12.455,0,0,1,8.551,3.776,11.328,11.328,0,0,0-4.268.689,21.636,21.636,0,0,0-9.569,6.181,15.7,15.7,0,0,0-3.95,10.552,1.164,1.164,0,0,0,.154.646,1.212,1.212,0,0,0,.735.382l9.709,2.426-5.948,4.179c-1.136.8-2.355,1.715-2.671,3.067a5.241,5.241,0,0,0,.129,2.309c1.512,6.818,5.764,13.248,12.079,16.229a10.827,10.827,0,0,0,3.619,1.043,12.462,12.462,0,0,1-8.57,3.795C592.239,573.943,584.6,561.545,584.6,546.306Z"/><path class="cls-6" d="M593.351,585.207c-5.572,2.875-10.759,3.506-15.419,1.87-4.789-1.682-8.179-5.445-10.194-8.324,7.049-1.36,12.175-6.211,11.859-11.678-.349-6.05-7.229-10.582-15.458-10.277a46.02,46.02,0,0,0,1.477-11.609c0-17.7-9.642-32.1-21.5-32.1s-21.5,14.4-21.5,32.1,9.642,32.1,21.5,32.1a15.43,15.43,0,0,0,8-2.329,15.826,15.826,0,0,0,8.3,3.9c-2.117,2.516-5.844,6.091-10.484,6.935-3.529.651-7.11-.428-10.656-3.179a2.233,2.233,0,1,0-2.735,3.53,18.441,18.441,0,0,0,11.356,4.3,15.853,15.853,0,0,0,2.861-.262c6.2-1.139,10.871-5.741,13.363-8.788,2.4,3.409,6.43,7.809,12.292,9.879a20.238,20.238,0,0,0,6.783,1.16,26.63,26.63,0,0,0,12.2-3.261,2.233,2.233,0,1,0-2.046-3.97ZM544.12,572.826c-9.389,0-17.028-12.4-17.028-27.637s7.639-27.637,17.028-27.637a12.5,12.5,0,0,1,8.646,3.87,10.306,10.306,0,0,0-4.979.6,21.645,21.645,0,0,0-9.569,6.181,15.706,15.706,0,0,0-3.95,10.552,1.16,1.16,0,0,0,.154.646,1.218,1.218,0,0,0,.735.383l9.71,2.426-5.949,4.178c-1.136.8-2.355,1.715-2.671,3.067a5.246,5.246,0,0,0,.129,2.31c1.512,6.818,5.764,13.247,12.079,16.229.22.1.447.2.676.293,0,.186-.041.366-.03.553a8.331,8.331,0,0,0,.54,2.471A11.252,11.252,0,0,1,544.12,572.826Z"/><path class="cls-6" d="M178.53,618.252a7.984,7.984,0,1,0-7.985-7.983A7.992,7.992,0,0,0,178.53,618.252Zm0-11.5a3.518,3.518,0,1,1-3.518,3.518A3.521,3.521,0,0,1,178.53,606.751Z"/><path class="cls-6" d="M552.471,712.383l0,0v0c2.755,13.478,9.8,45.146,15.756,48.075a3.268,3.268,0,0,0,2.949.034c5.253-2.562,26.9-15.46,29.708-17.135a110.683,110.683,0,0,1,13.8-2.582,18.524,18.524,0,0,0-2.836,16.553,20.077,20.077,0,0,0,15.017,13.071,19.311,19.311,0,0,0,.989,5.408,14.433,14.433,0,0,0,3,5.228,12.112,12.112,0,0,0,1.385,1.254,19.576,19.576,0,0,0-2.408,14.7,16.571,16.571,0,0,0,1.132,3.206l4.141-1.717a11.965,11.965,0,0,1-.926-2.517,15.288,15.288,0,0,1,1.972-11.483c.489.2.975.4,1.513.586a47.215,47.215,0,0,0,15.107,2.015c1.97,0,3.9-.056,5.76-.109a2.235,2.235,0,0,0,2.168-2.3,2.274,2.274,0,0,0-2.3-2.168c-6.491.2-13.2.385-19.313-1.671a11.781,11.781,0,0,1-4.97-2.854,10,10,0,0,1-2.044-3.624,14.9,14.9,0,0,1,1.468-12.772,13,13,0,0,1,11.038-5.844,1.976,1.976,0,0,0,.673-.094,29.98,29.98,0,0,1-1.1,6.268c-.513,1.831.148,2.813.793,3.314a2.408,2.408,0,0,0,1.525.553c1.095,0,2.325-.705,3.917-1.619,4.676-2.68,13.382-7.671,24.113-3.361a2.216,2.216,0,0,0,1.808-.087c.011,0,.021,0,.033,0a2.231,2.231,0,0,0,1.975-3.271,19.666,19.666,0,0,1-2.246-8.89c12.259-6.939,20.344-21.72,21.718-39.866a44.215,44.215,0,0,0-8.059-27.894c-7.053-9.981-15.569-15.606-26.6-17.652-.27-.078-27.329-7.418-48.48,17.64a12.925,12.925,0,0,0-1.111,1.588c-1.585,2.564-3.561,5.759-57.919,2.191-3.217-.208-6.429-.114-8.091,2.022-1.887,2.424-.807,5.753.981,11.27A121.712,121.712,0,0,1,552.471,712.383Zm92.283,38.9a17.464,17.464,0,0,0-14.942,7.85,18.353,18.353,0,0,0-2.638,6.749,15.477,15.477,0,0,1-11.076-9.922,13.983,13.983,0,0,1,4.066-14.584,2.172,2.172,0,0,0,.684-1.126c8.124-.388,16.629.55,21.186,5.119a11.124,11.124,0,0,1,3,5.98A2.042,2.042,0,0,0,644.754,751.288Zm-93.7-61.939c.062-.059.711-.555,4.284-.318,57.041,3.741,59.13.369,62.013-4.3a8.513,8.513,0,0,1,.72-1.054c19.24-22.787,42.853-16.5,44.048-16.178,10.017,1.868,17.636,6.916,23.976,15.887a39.619,39.619,0,0,1,7.252,24.981c-1.3,17.161-8.96,30.945-20.493,36.867a2.233,2.233,0,0,0-1.21,1.873,24.109,24.109,0,0,0,1.128,8.453c-10.312-2.713-18.726,1.429-23.5,4.114,1.4-7.477.03-13.339-4.078-17.457-12.2-12.224-44.418-3.461-45.783-3.081a2.248,2.248,0,0,0-.547.235c-.234.14-22.584,13.483-28.99,16.787-3.118-3.435-9.079-25.348-13.024-44.649v0a127.54,127.54,0,0,0-4.085-15.018C551.841,693.633,550.689,690.082,551.051,689.349Z"/><path class="cls-6" d="M766.368,419.878c1.684-11.055-2.4-23.523-2.619-24.168-7.11-21.282-22.689-23.782-28.551-24.723l-.449-.072c-.949-11.3-11.747-18.935-18.665-21.168a47.18,47.18,0,0,0-31.98,1.318c-21.486-11.026-39.3-3.661-48.059,1.789l-.383.237c-14.743,7.862-15.465,23.852-15.25,29.355-10.738,2.682-20.833,13.711-22.248,15.322-3.64-13.373-8.845-20.2-10.66-22.57-.192-.251-.334-.433-.417-.557-10.054-15.257-30.259-15.352-35.631-15.09-4-5.132-14.006-12.041-14.705-12.447-20.523-11.916-39.309-2.424-44.686.833a56.584,56.584,0,0,0-6.354,4.338c-25.523-17.618-39.23-8.577-45.1-4.7-.525.348-1.147.759-1.558.988-18.407-9.25-43.474,6.779-46.433,9.428-12.854,11.514-13.025,19.866-12.858,23.776-11.677-.841-21.765,11.6-23.925,15.159-.595.981-1.1,1.927-1.614,2.874a2.065,2.065,0,0,0-.186-.131,11.474,11.474,0,0,0-7.563-.7c-1.151-28.441-22.11-39.743-26.456-41.786-14.356-7.287-23.541-4.129-27.466-2.785-.225.078-.475.164-.7.237a40.013,40.013,0,0,0-34.5-10.552C237,348.3,231.094,358.6,228.254,363.545c-.29.506-.628,1.095-.891,1.5-11.38-3.1-26.82-3.381-37.407,11.8-.183.26-.319.463-.421.588-10.136,12.481-6.244,20.514-4.374,24.375.218.451.5,1.033.629,1.389l-.114.186c-.937,1.559-2.89,4.8-4.884,12.572a25.955,25.955,0,0,0,.692,16.085c-9.082,8.474-10.911,15.166-11.6,17.694-2.876,10.569,3.671,20.418,6.618,24.163,10.228,12.985,19.039,10.154,23.311,7.89,1.09,7.322,4.422,13.108,9.626,16.535a36.2,36.2,0,0,0,20.339,6.519,31.436,31.436,0,0,0,4.842-.378c-2.927,5.781-6.88,16-4.543,25.76-7.467-1.86-14.077,3.454-18.589,8.765-8.449,9.954-9.632,20.811-3.338,29.991l-.227.211c-2.788,2.6-9.319,8.693-7.531,24.123a20.525,20.525,0,0,0,8.825,14.5,19.378,19.378,0,0,0,11.768,3.561c-1.686,5.261-3.54,16.206,9.266,29.012A27.764,27.764,0,0,0,236,644.221l-31.439,2.46c.009-2.768,0-5.31-.009-7.528l0-.766c0-7.7-1.6-12.959-4.764-15.629a7.5,7.5,0,0,0-2.694-1.479l.626-16.667a12.611,12.611,0,0,0-3.63-9.386c-.119-.122-.263-.205-.386-.321.086-13.5.6-95.318.356-98.368-.591-7.331-5.486-11.985-13.092-12.45-2.732-.164-5.826.8-9.2,2.869a11.588,11.588,0,0,0-5.566,9.863l-.421,61.067-7.906-50.11a2.261,2.261,0,0,0-2.312-1.883c-.392.019-9.626.525-14.4,6.19a12.212,12.212,0,0,0-2.654,9.76c1.424,11.493,11.274,59.981,13.364,70.217-10.594.227-19.238.445-20.808.58-4.691.4-6.875,5.159-7.457,8.117-.97,9.44-3.169,31.667-2.671,34.187.825,4.179,7.91,5.674,11.217,5.674.147,0,.288,0,.418-.009l2.165-.113a5.929,5.929,0,0,0,5.618-5.588l.516-8.935a5.867,5.867,0,0,0,0-.621c-.281-6.622.3-11.728,1.018-12.813,1.749-.967,4.7-1.27,6.661-1.472.5-.052.951-.1,1.327-.149a2.609,2.609,0,0,1,2.052.577,7.22,7.22,0,0,1,2.192,4.775l.608,6.134c-.164.116-.338.2-.5.331-2.137,1.743-3.219,4.33-3.219,7.689L151,637.8a37.957,37.957,0,0,0-6.7,1.61c-5.808,1.661-8.37,8.059-9.379,11.724a18.635,18.635,0,0,0,1.775,14.922c-.086.188-.136.391-.213.583,1.347.775,2.619,1.625,3.878,2.492a7.185,7.185,0,0,1,3.924-4.718c7.781-3.437,24-.9,28.793-.036a7,7,0,0,1,5,3.464,6.735,6.735,0,0,1,.675,4.1c-.191,1.335-2.418,7.176-3.2,8.068a10.158,10.158,0,0,0-3.822-.869,161.522,161.522,0,0,0-19.838.458c1.139,1.363,2.241,2.754,3.253,4.207a161.779,161.779,0,0,1,16.405-.2c4.078.164,5.282,3.563,6.089,6.737.094.366.173.671.244.9a7.757,7.757,0,0,1-2.117,8.026c1.05,1.051,2.106,2.1,3.07,3.22a12.236,12.236,0,0,0,3.3-12.606c-.051-.159-.1-.377-.171-.638a16.884,16.884,0,0,0-2.945-6.5c2.095-2.774,4.034-9.258,4.161-10.2a11.1,11.1,0,0,0-1.149-6.767,10.343,10.343,0,0,0-1.376-1.993c2.779-3.506,3.822-7.01,3.059-10.426-1.614-7.23-10.6-11.354-14.916-13.335l-.779-.36a27.183,27.183,0,0,0-12.554-2.272l.012-6.95c0-1.973.513-3.353,1.566-4.219,1.851-1.52,5.175-1.28,6.295-1.057a2.134,2.134,0,0,0,.429.046l30.99.267c.1-.019.245-.014.319-.021a2.745,2.745,0,0,1,1.936.83c1.144,1.043,3.065,4,3.065,12.117l0,.792c.192,33.939-1.64,73.3-7.312,83.432a2.224,2.224,0,0,0-.2.293,10.4,10.4,0,0,1-1.848.584c.592,1.72,1.095,3.474,1.555,5.24.02-.387.042-.8.057-1.115a11.047,11.047,0,0,0,3.142-1.343l62.84.462c-3.947,14.631-7.661,29.359-9.024,37.645a96.354,96.354,0,0,0-1.161,18.022c1.532.17,3.054.4,4.552.711A91.4,91.4,0,0,1,253.7,765.1c1.383-8.412,5.349-23.981,9.473-39.176a2.193,2.193,0,0,0,.536-1.386,2.068,2.068,0,0,0-.067-.342c5.46-20.023,11.035-38.893,11.134-39.229A2.233,2.233,0,1,0,270.5,683.7c-.4,1.346-5.7,19.29-10.967,38.574l-61.545-.452c5.17-14,6.364-48.03,6.551-70.658l40.314-3.155c5.524,1.794,11.778,2.773,17.355,1.394,2.234-.552,4.873-2.305,7.331-4.823,8.983,10.3,19.957,12.512,32.65,6.563.2.179.43.379.633.56,2.79,2.5,8.276,7.4,16.227,7.4a23.04,23.04,0,0,0,10.385-2.659,2.233,2.233,0,0,0-2-3.993c-10.943,5.479-17.9-.736-21.635-4.078-1.61-1.439-2.88-2.577-4.537-1.745-17.178,8.606-26.1-2.225-29.031-5.782-.907-1.1-1.506-1.826-2.687-1.826h0a2.333,2.333,0,0,0-1.764.835c-2.714,3.306-5.273,4.873-6.641,5.211-10.618,2.633-25.471-5.6-27.722-7.845-12.651-12.651-8.951-22.51-7.558-26.221.5-1.343.98-2.612-.051-3.764a2.651,2.651,0,0,0-2.435-.7,14.385,14.385,0,0,1-11.615-2.408,16.061,16.061,0,0,1-6.921-11.333c-1.528-13.188,3.461-17.842,6.141-20.343,1.1-1.029,3.16-2.948,1.534-5.077-7.934-10.391-1.909-20.437,2.389-25.5,9.26-10.9,15.194-7.205,17.143-5.988a2.611,2.611,0,0,0,3.292.07,2.418,2.418,0,0,0,.382-3.1c-5.579-11.612,2.829-26.574,4.866-29.906A47.447,47.447,0,0,0,251.11,499.2l25.161-.5a2.151,2.151,0,0,0,.543-.121c3.66,2.7,11.231,7.54,18.459,7.54a12.926,12.926,0,0,0,7.345-2.134c.043-.029.064-.074.1-.1a42.159,42.159,0,0,0,14.926,7.082,42.789,42.789,0,0,0,10.359,1.238c6.542,0,14.87-1.546,21.036-7.906a31.278,31.278,0,0,0,17.649,5.943c5.44,0,11.632-1.732,18.013-6.753l17.326-.219a14.685,14.685,0,0,0,10.081-4.131,44.225,44.225,0,0,0,8.137-9.966c4.119,2.876,10.5,5.816,17.27,5.816A20.754,20.754,0,0,0,449.867,491c1.159,3.461,4.209,9.307,11.824,13.591.281,4.48.158,13.826-3.021,17.9a21.225,21.225,0,0,0-11.024,3.892,2.234,2.234,0,0,0,2.722,3.542c.049-.037,5-3.746,10.977-2.857,3.855.571,7.383,2.955,10.5,7.051a22.689,22.689,0,0,0-6.195,5.65c-1.122,1.486-10.689,14.8-5.349,29.916-.244.467-.722,1.234-1.126,1.878-4.179,6.7-15.179,24.372,7.528,44.38a20.283,20.283,0,0,0,1.091,6.284l-.008.01c-3.618,6.048-7.64,4.7-10.574,3.708-1.293-.435-2.409-.809-3.534-.218a2.5,2.5,0,0,0-1.247,1.55c-1.11,3.937-3.153,6.582-6.244,8.089-7.486,3.646-18.458-.773-18.567-.817a2.233,2.233,0,0,0-1.7,4.13c.087.036.51.207,1.187.443-14.742,12.893-38.006,6.183-38.251,6.112a2.233,2.233,0,0,0-1.282,4.279,59.155,59.155,0,0,0,15.625,2.077c9.1,0,20.415-2.206,28.923-11.083a34.328,34.328,0,0,0,6.953.764,23.223,23.223,0,0,0,5.614-.683c.018.015.026.036.044.049,45.738,34.354,40.744,83.709,40.678,84.2-2.739,21.237-16.95,39.168-22.933,45.892l-.248.278c-13.091,14.918-34.608,13.338-42.472,12.161a40.6,40.6,0,0,0,11.976-18.949,2.233,2.233,0,0,0-4.292-1.235A36.068,36.068,0,0,1,416.273,780.3c-4.836,4.118-9.348,6.249-14.625,6.9-3.881.471-10.541-.615-17.621-5.131a13.861,13.861,0,0,1-4.425-4.2,13.074,13.074,0,0,1-1.612-4.345,16.338,16.338,0,0,1,.209-7.7c3.435,3.374,8.492,5.231,14.544,5.231.525,0,1.06-.015,1.6-.042a2.234,2.234,0,0,0-.231-4.462c-3.217.18-11.112-.107-14.622-6.26a12.65,12.65,0,0,1-1.187-5.458c-.312-5.225.329-8.917,1.97-11.453.36.4.718.781,1.061,1.145a16.733,16.733,0,0,0,11.224,5.208c.039,0,.079,0,.118,0a2.234,2.234,0,0,0,.113-4.465,12.293,12.293,0,0,1-8.289-3.9c-2.416-2.567-4.7-4.994-4.061-10.059.228-1.808,3.4-9.725,10.393-13.273a20.116,20.116,0,0,1,9.476-2.392c-.2.79-.4,1.578-.569,2.374a2.233,2.233,0,1,0,4.371.917,61.746,61.746,0,0,1,4.35-13.149c1.614-3.5,3.249-5.363,5.148-5.856,2.271-.589,4.729,1,5.973,2.87a14.737,14.737,0,0,1,2.084,8.152,83.846,83.846,0,0,1-1.617,14.394A2.232,2.232,0,0,0,421.774,728a2.278,2.278,0,0,0,.461.048,2.232,2.232,0,0,0,2.183-1.776,86.622,86.622,0,0,0,1.713-15.31,25.111,25.111,0,0,0-.162-2.764c.018-.014.04-.019.057-.034a50.073,50.073,0,0,0,10.734-13.18,2.233,2.233,0,0,0-3.891-2.193,45.6,45.6,0,0,1-8.117,10.428,15.432,15.432,0,0,0-1.452-2.882c-2.511-3.777-6.955-5.711-10.812-4.721-4.333,1.122-6.689,5.278-8.086,8.308a66.128,66.128,0,0,0-2.827,7.252,25.12,25.12,0,0,0-12.766,2.887c-8.723,4.43-12.438,13.791-12.8,16.7a14.14,14.14,0,0,0,1.536,8.864c-3.808,4.531-3.97,10.924-3.7,15.478a18.579,18.579,0,0,0,1.3,6.372,19.486,19.486,0,0,0-1.528,12.94,17.465,17.465,0,0,0,2.194,5.81,18.232,18.232,0,0,0,5.817,5.611c6.889,4.4,13.6,5.933,18.315,5.933a18.244,18.244,0,0,0,2.261-.134,29.094,29.094,0,0,0,12.992-4.911,2.176,2.176,0,0,0,.512.238,63.971,63.971,0,0,0,13.949,1.459c8.7,0,20-1.684,29.531-8.628-.47,10.862-6.254,33.431-6.318,33.676a2.227,2.227,0,0,0,.178,1.581l12.544,24.322q2.523.03,5.045.038L457.4,813.761c1.2-4.76,6.868-27.867,6.227-36.946a2.155,2.155,0,0,0-.174-.625c.727-.708,1.439-1.449,2.13-2.236l.227-.258c6.26-7.034,21.127-25.818,24.025-48.286,0-.036.034-.327.069-.817l7.365,1.563a199.337,199.337,0,0,0-2.683,19.917l-.061.693c-1.608,17.969-2.5,49.073,8.773,60.6-2.768,5.1-11.637,21.565-16.5,31.888,1.691-.05,3.373-.163,5.061-.238,4.777-9.835,12.583-24.423,16.194-31.034a2.2,2.2,0,0,0,.073-.235,2.15,2.15,0,0,0,.13-.423,2.126,2.126,0,0,0,.037-.419,2.085,2.085,0,0,0-.164-.827,2.032,2.032,0,0,0-.48-.718c-.057-.057-.087-.13-.15-.182-8-6.49-11.191-28.176-8.521-58.009l.065-.757c2-26.54,13.245-63.287,13.358-63.654a2.234,2.234,0,0,0-4.27-1.315c-.081.267-5.962,19.494-10.034,40.325l-8.056-1.711a104.313,104.313,0,0,0-40.655-81.435,15.991,15.991,0,0,0,6.753-8.323c2.754.912,8.81,2.592,13.818-3.431a27.953,27.953,0,0,0,7.709,8.15c.248.177.54.4.876.656,2.945,2.241,9.019,6.866,16.611,6.866a18.66,18.66,0,0,0,2.088-.133c1.675,4.12,7.121,14.845,19.038,16.78,10.05,1.631,17.723.586,22.841-3.111l.26.153c2.476,1.451,7.426,4.356,13.552,4.355a20.754,20.754,0,0,0,13.2-4.977,2.234,2.234,0,0,0-2.792-3.487c-9.361,7.49-18.01,2.422-21.7.256-1.526-.894-2.968-1.74-4.333-.554-4.039,3.494-10.868,4.49-20.311,2.955-9.084-1.473-13.7-9.731-15.35-13.461a2.2,2.2,0,0,0,1.125-2.7,2.23,2.23,0,0,0-2.846-1.367c-8.172,2.868-15.269-2.531-18.677-5.127-.371-.283-.7-.53-.969-.727-9.932-7.157-9.125-15.771-9.083-16.153.008-.074-.019-.14-.018-.213a2.3,2.3,0,0,0-.149-.853,2.173,2.173,0,0,0-.188-.365,2.2,2.2,0,0,0-.283-.361,2.131,2.131,0,0,0-.133-.168c-20.895-17.811-11.82-32.359-7.458-39.35,1.489-2.387,2.309-3.7,1.736-5.21-4.975-13.123,3.527-24.951,4.512-26.257,7.125-9.438,19.247-7.625,19.781-7.54a2.233,2.233,0,0,0,.725-4.407,22.17,22.17,0,0,0-2.7-.23c-1.5-13.019,4.195-24.723,4.253-24.841a2.139,2.139,0,0,0,.134-.5,10.584,10.584,0,0,0,2.481-4.222,17.1,17.1,0,0,0,8.826,2.854c.134,0,.266,0,.4,0,4.857,0,9.57-2.249,14.013-6.693a10.8,10.8,0,0,0,1.048-1.282,30.4,30.4,0,0,0,21.365,9.96c.1,0,.305.014.609.014,2.165,0,9.38-.44,20.348-5.531a2.1,2.1,0,0,0,.368-.271,51.609,51.609,0,0,0,16.6,6.079,19,19,0,0,0,3.607.327c6.848,0,14.513-3.167,17.84-6.77,6.491,4.047,12.8,6.105,18.638,6.1a22.835,22.835,0,0,0,13.285-4.181c1.126.518,3.52,1.009,9.079,1.009,6.334,0,16.77-.637,34.1-2.593a2.243,2.243,0,0,0,.947-.334c.356-.225,7.5-4.877,9.641-13.289a29.624,29.624,0,0,0,6.075,6.168,28.653,28.653,0,0,0,15.36,4.25,36.622,36.622,0,0,0,6.225-.557c2.32,3.437,8.517,14.584,4.523,30.351-2.378-1.478-4.011-2.268-4.081-2.3a2.233,2.233,0,0,0-1.908,4.039,49.448,49.448,0,0,1,5.825,3.391,2.22,2.22,0,0,0,.308.209c7.509,5.1,18.7,15.394,14.721,29.589a24.792,24.792,0,0,0-2.547-1.915,2.234,2.234,0,0,0-2.382,3.779c.081.052,8.161,5.229,9.592,13.509.831,4.794-.759,9.784-4.722,14.831-.008.011-.009.025-.018.035a2.214,2.214,0,0,0-1.024,2.722c.207.542,4.909,13.43-8.264,28.941-7.166,8.436-17.685,13.255-29.778,13.817a2.2,2.2,0,0,0-.779-2.735,2.232,2.232,0,0,0-3.09.628c-.482.719-12.083,17.55-42.73,12.758a2.233,2.233,0,1,0-.689,4.412,72.887,72.887,0,0,0,11.263.912c10.726,0,18.7-2.682,24.383-5.822a2.248,2.248,0,0,0,.82.364c.307.066,31.074,7.217,52.766,53.52,7.48,15.967,6.806,32.259,4.916,43.182q2.652-2.081,5.18-4.228c1.316-11.208.886-26.039-6.053-40.847-18.9-40.345-44.1-52.116-52.8-55.1A36.439,36.439,0,0,0,689,641.2a2.164,2.164,0,0,0,1.147.363c14.422,0,27.041-5.506,35.531-15.5,12.475-14.687,10.612-27.627,9.491-31.934,4.719-6.05,6.586-12.189,5.536-18.247A23.383,23.383,0,0,0,735,564.559a2.179,2.179,0,0,0,.609-.912c5.358-16.379-6.356-28.4-14.928-34.675,4.727-16.45-.642-28.736-3.814-34.049.857-.248,1.67-.507,2.418-.77a26.6,26.6,0,0,0,16.272,5.805,28.532,28.532,0,0,0,10.261-2l.214-.08c15.535-5.853,16.751-16.395,16.617-20.376,18.707-5.789,20.728-25.665,20.895-28C784.945,430.717,769.756,421.657,766.368,419.878ZM170.662,496.849a7.15,7.15,0,0,1,3.433-6.085c2.544-1.559,4.838-2.327,6.6-2.219,3.092.189,8.362,1.526,8.911,8.349.038.5.054,3.354.054,7.826l-19.051.161Zm-.086,12.5,19.078-.161c-.032,20.539-.267,61.525-.4,83.013a13.154,13.154,0,0,0-4.464-.78c-4.08.074-8.786.161-13.683.254l-1.051-6.661Zm-27.637,11.945a7.825,7.825,0,0,1,1.63-6.322c2.389-2.849,6.7-3.958,9.222-4.376L166.6,591.761c-3.414.066-6.856.135-10.186.2C154.8,584.092,144.367,532.811,142.939,521.293Zm23.185,122.395.816.378c3.378,1.551,11.289,5.18,12.421,10.248.465,2.086-.281,4.3-2.249,6.75a12.132,12.132,0,0,0-3.244-1.088c-6.54-1.171-22.692-3.492-31.386.348a11.415,11.415,0,0,0-2.8,1.8,14.7,14.7,0,0,1-.451-9.806c.612-2.224,2.452-7.515,6.454-8.665C145.8,643.608,157.262,639.524,166.124,643.688Zm26.507-22.712-28.622-.246a15.881,15.881,0,0,0-4.958-.024l-.484-4.877A11.5,11.5,0,0,0,154.706,608a7.061,7.061,0,0,0-5.411-1.5c-.339.044-.746.085-1.2.132-2.407.248-6.044.622-8.618,2.152-.912.54-3.688,2.187-3.069,16.944l-.516,8.932a1.466,1.466,0,0,1-1.39,1.384l-2.148.113c-2.514.111-6.57-1.241-7.03-2.02-.231-1.884,1.23-18.365,2.691-32.7.009-.042.937-4.119,3.43-4.335,2.215-.19,21.685-.628,53.421-1.2a8.24,8.24,0,0,1,8.384,8.558Zm46.1-122.169-.006,0-.018,0c-.051.011-.089.045-.138.059-.027.007-.051.023-.076.031a2.1,2.1,0,0,0-.22.047c-.119.053-12.231,5.117-26.477-4.427-4.624-3.043-7.411-8.773-7.85-16.132a2.66,2.66,0,0,0-1.286-2.041c-1.306-.685-2.447.009-3.552.682-3.173,1.93-9.774,5.94-19.1-5.9-2.529-3.212-8.161-11.615-5.817-20.226.627-2.3,2.068-7.552,9.384-14.69a17.439,17.439,0,0,0,2.193,2.836,2.233,2.233,0,0,0,3.134-3.183c-.28-.28-6.817-6.993-3.787-18.805,1.831-7.135,3.556-10,4.385-11.379a4.893,4.893,0,0,0,.758-1.672c.256-1.39-.363-2.67-1.082-4.153-1.8-3.718-4.522-9.337,3.821-19.612.148-.181.355-.47.617-.849,7.492-10.742,18.7-14.052,33.322-9.836,2.588.743,3.908-1.561,5.187-3.791,2.708-4.719,7.748-13.5,26.139-17.31A35.377,35.377,0,0,1,289.4,358.485c1.281,1.281,2.9.728,4.6.14,3.677-1.261,11.321-3.889,24.167,2.626,3.989,1.875,23.888,12.628,23.888,40.18a2.584,2.584,0,0,0,1.043,2.134,3.327,3.327,0,0,0,3.235.1,7.471,7.471,0,0,1,5.9.089c.007,0,.014,0,.021,0-5.874,13.109-3.987,22.37-2.542,26.386-.479.246-.958.489-1.395.751-10.6-8.361-23.075-6.826-27.992-5.754-9.293,2.026-15.2,5.491-18.907,8.635a36.733,36.733,0,0,0-20.566,5.879c-1.16-10.326-7.459-13.78-7.753-13.934a2.223,2.223,0,0,0-2.989.926,2.247,2.247,0,0,0,.894,3.019c.228.127,5.568,3.212,5.58,13.285a40.455,40.455,0,0,0-10.179,14.966,35.284,35.284,0,0,0-.908,23.3A44.361,44.361,0,0,1,238.736,498.807Zm19.893-4.229a49.181,49.181,0,0,0,8.706-8.322,35,35,0,0,0,4.87,8.051Zm91.736,5.091c-16.7-14.663-11.305-33.165-11.067-33.944a2.233,2.233,0,0,0-4.268-1.317,37.853,37.853,0,0,0,10.609,36.968c-9.72,9.744-26.114,5.461-26.819,5.27-10.076-2.738-16.9-7.676-20.28-14.676-5.73-11.86.206-25.991.267-26.132a2.233,2.233,0,0,0-4.1-1.768c-.282.65-6.81,16.094-.2,29.811a27.228,27.228,0,0,0,4.766,6.842c-7.176,3.529-19.055-4.859-21.731-7.247-5.323-4.757-12.838-19.572-6.993-33.864,6.865-16.783,19.641-20.508,26.6-21.242a13.436,13.436,0,0,0-1.331,2.27,2.233,2.233,0,1,0,4.126,1.707,15.448,15.448,0,0,1,3.607-4.526c.032-.025.058-.055.089-.082,3.082-2.811,8.476-6.232,17.639-8.23,4.148-.906,14.421-2.194,23.32,4.176a18.331,18.331,0,0,0-5.519,9.151,2.234,2.234,0,0,0,4.391.822c.022-.118,2.416-11.779,20.783-12.435,4.8-.188,19.077,1,21.062,5.847-2.614,2.462-11.338,11.5-13.62,24.419-2.7,15.271-3.411,30.538,8.592,39.72C365,511.78,351.88,501,350.365,499.669Zm66.847-14.309A37.132,37.132,0,0,1,409,495.92a10.24,10.24,0,0,1-7.029,2.873l-17,.214c-12.759-7.927-11.3-23.1-8.885-36.742,1.919-10.858,9.2-18.9,11.874-21.539,11.127.112,24.007,1.629,26.071,3.99,5.573,6.38,6.713,17.587,6.713,20.239C420.753,474.359,419.76,480.081,417.212,485.36Zm32.454-.011c-10.682,10.683-24.285,2-27.446-.279,2.141-5.323,3-11.232,3-20.115,0-.142-.212-14.474-7.816-23.178-1.909-2.184-6.836-3.5-12.212-4.3-2.331-11.408,6.063-21.521,6.15-21.624a2.233,2.233,0,0,0-3.4-2.895c-.4.467-9.24,11.043-7.388,23.954-4.143-.4-8.108-.566-10.8-.626-.013-.064,0-.127-.016-.192-2.959-10.026-25.414-9.345-25.642-9.335a38.011,38.011,0,0,0-10.263,1.675c-1.352-3.863-3.32-14.111,5.823-29.191,1.5-2.469,11.172-14.624,20.919-12.875a3.048,3.048,0,0,0,2.691-.625c1.114-.978,1.046-2.357.982-3.69-.161-3.285-.5-10.12,11.352-20.733,2.575-2.307,25.958-17.115,41.959-8.5,1.776.956,3.426-.136,5.517-1.519,5.462-3.613,16.722-11.03,39.089,3.964a70.381,70.381,0,0,0-13.537,17.357c-12.434-.812-27.858,9.357-28.533,9.808-14.679,9.8-14.546,34.714-14.53,34.956.994,14.966,8.323,22.887,12.269,26.112-2.479,3.668-7.406,13.009-2.539,24.053,1.979,4.488,5.616,12.674,15.189,17.291A2.2,2.2,0,0,0,449.666,485.349Zm32.883,45.121a27.675,27.675,0,0,0-6.643,1.627c-.013-.018-.014-.041-.028-.059-3.546-4.9-7.683-7.933-12.307-9.064,2.438-4.933,2.751-11.951,2.667-16.229a44.071,44.071,0,0,0,7.409,2.08,29.262,29.262,0,0,0,5.113.43,24.246,24.246,0,0,0,6.517-.845A52.547,52.547,0,0,0,482.549,530.47ZM516.3,473.241c4.134,5.748,1.921,12.869-.186,17.052-.025.032-.033.071-.055.1a16.936,16.936,0,0,1-2.1,3.326c-3.652,3.651-7.4,5.469-11.1,5.383a13.868,13.868,0,0,1-8.964-4.072c-.012-.013-.028-.018-.041-.03a2.235,2.235,0,0,0-.414-.305,2.441,2.441,0,0,0-.294-.2,10.65,10.65,0,0,0-.847-.186c-.019,0-.036-.011-.055-.011a2.02,2.02,0,0,0-.329.067,2.164,2.164,0,0,0-.466.094,2.134,2.134,0,0,0-.43.254,2.078,2.078,0,0,0-.271.161c-.015.013-.019.031-.033.044a1.663,1.663,0,0,0-.594,1.069,2.177,2.177,0,0,0-.1.489c0,.019-.011.036-.011.055a7.079,7.079,0,0,1-2.412,5.838c-3.684,3.041-10.885,2.5-13.115,2.064-18.985-3.662-20.818-16.261-20.89-16.83a2.1,2.1,0,0,0-.162-.488,2.191,2.191,0,0,0-.182-1.118,35.721,35.721,0,0,0,7.82,1.88,2.079,2.079,0,0,0,.283.018,2.233,2.233,0,0,0,.279-4.449c-15.312-1.947-19.83-12.2-22.258-17.7-4.269-9.687.747-17.848,2.509-20.269a2.225,2.225,0,0,0,.612-4.114c-.461-.263-11.309-6.634-12.481-24.262-.01-.219.235-22.739,12.553-30.959.155-.105,15.933-10.523,26.9-8.948,1.6.233,2.218-.913,2.96-2.231,2.152-3.83,8.706-15.484,22.051-23.274,4.735-2.873,21.631-11.4,40.01-.732,1.247.755,11.452,8.051,13.971,12.085a1.973,1.973,0,0,0,.167.175,1.871,1.871,0,0,0,1.605.831,2.033,2.033,0,0,0,.342.033c.222-.021,22.863-2.026,32.775,13.013.118.18.321.45.6.814,1.832,2.394,7.408,9.678,10.8,24.639a2.1,2.1,0,0,0,.091.219c-7.084,12.465-6.118,25.611-5.2,31.291-3.923-1.784-10.679-4.232-16.776-3.335a49.569,49.569,0,0,0-15.716,5.889c-2.957-1.2-16.864-6.2-27.418,1.19a25.933,25.933,0,0,0-6.858-10.049,2.232,2.232,0,1,0-3,3.3c3.635,3.312,7.819,9.327,7.088,19.173l-.026.371c-.77,12.824-6.469,16.606-8.9,18.222-1.047.695-1.952,1.3-2.17,2.5A2.808,2.808,0,0,0,516.3,473.241Zm83.108,21.178-.489-.33c-14.939-9.736-13.258-23.222-13.177-23.793a2.234,2.234,0,0,0-4.421-.641c-.1.663-2.084,15.931,13.811,27.21-2.944,2.589-10.817,5.765-16.823,4.6-12.894-2.5-19.6-8.177-22.448-11.341-7.786-8.641-5.431-20.429-5.4-20.57a2.234,2.234,0,0,0-4.369-.933c-.122.572-2.9,14.115,6.449,24.493a32.421,32.421,0,0,0,4.077,3.766c-10.49,4.509-16.558,4.238-16.835,4.22a25.694,25.694,0,0,1-19.261-9.639c2.348-5.083,4.115-12.616.43-19.215,3.187-2.146,9.579-7.039,10.441-21.374l.021-.309a31.7,31.7,0,0,0-.392-8.093c6.691-5.743,16.126-4.237,21.243-2.783a57.978,57.978,0,0,0-5.187,4.065,2.233,2.233,0,1,0,2.953,3.35c9.145-8.069,19.365-11.349,23.489-11.956,5.56-.812,12.219,1.967,15.368,3.5a54.97,54.97,0,0,0-4.33,3.9,2.233,2.233,0,1,0,3.158,3.159c11.406-11.406,20.507-10.807,24.405-10.555l.5.032c7.757.462,16.606,5.476,19.053,6.948A116.512,116.512,0,0,0,622.8,461.5c-3.979,10.787-1.855,25.018,5.212,36.336C618.219,504.436,607.1,499.677,599.41,494.419Zm81.343-13.1c0,7.821-6.183,12.866-7.806,14.055-17.275,1.931-36.437,3.229-39.785,2.167-7.457-10.481-9.938-24.291-6.174-34.491,4.072-11.031,7.6-17.167,8.972-19.365l12.778.162c3.664,9,10.751,17.047,18.161,20.437a19.507,19.507,0,0,0,8.127,1.873c.449,0,.9-.028,1.341-.064a39.029,39.029,0,0,0,4.553,14.4A2.206,2.206,0,0,0,680.753,481.316Zm79.218-7.644a2.235,2.235,0,0,0-1.662,1.834,2.194,2.194,0,0,0-.187,1.316c.087.445,1.939,11-13.666,16.875l-.238.091a21.792,21.792,0,0,1-20.06-1.682c.508-.254.836-.435.923-.484a2.233,2.233,0,0,0-2.2-3.889,39.282,39.282,0,0,1-9.953,3.533,2.107,2.107,0,0,0-.478.087c-5.7,1.133-12.907,1.2-19.421-2.854-1.409-.877-11-9.783-12.29-23.385.15-.056.3-.1.454-.159a2.233,2.233,0,0,0-1.675-4.14,13.209,13.209,0,0,1-10.763-.6c-6.947-3.176-13.614-11.191-16.6-19.944-4.179-12.279,4.673-27.314,4.763-27.464a2.233,2.233,0,0,0-3.83-2.3c-.389.648-8.974,15.209-5.813,28.844l-12.088-.153a2.144,2.144,0,0,0-.428-.417c-.471-.3-11.646-7.458-21.883-8.067l-.472-.031a29.545,29.545,0,0,0-18.076,4.183c-.8-4.085-3.194-20.654,7.189-34.175,1.507-1.9,11.812-12.594,21.164-14.2a3.012,3.012,0,0,0,2.288-2.674c-.091-.767-2.065-18.87,12.787-26.792.12-.065.338-.195.641-.385,8.057-5.012,24.538-11.836,44.42-1.244a7.485,7.485,0,0,0,2.97-.2A43.073,43.073,0,0,1,714.71,354c5.1,1.647,15.64,8.342,15.64,18.524,0,2.21,2.105,2.548,4.139,2.875,5.616.9,18.769,3.012,25.025,21.729.058.178,5.886,17.9.582,28.17a2.234,2.234,0,0,0,3.969,2.05,20.9,20.9,0,0,0,1.222-2.985c4.011,2.282,14.914,9.9,13.8,24.846C778.847,452.548,776.8,469.429,759.971,473.672Z"/><path class="cls-6" d="M652.054,488.724a2.232,2.232,0,0,0,1.886-3.425,28.506,28.506,0,0,1-.9-29.815,2.233,2.233,0,0,0-3.758-2.413,32.95,32.95,0,0,0,.877,34.612A2.231,2.231,0,0,0,652.054,488.724Z"/><path class="cls-6" d="M580.955,737.674a2.234,2.234,0,0,0,2.139,1.589,2.273,2.273,0,0,0,.643-.093,2.238,2.238,0,0,0,1.5-2.783l-10.75-35.746a2.234,2.234,0,0,0-4.279,1.287Z"/><path class="cls-6" d="M653.89,729.2c12.444,0,22.571-9.518,22.571-21.216s-10.127-21.218-22.571-21.218-22.569,9.518-22.569,21.218S641.445,729.2,653.89,729.2Zm0-37.967c9.982,0,18.1,7.515,18.1,16.751s-8.122,16.75-18.1,16.75-18.1-7.514-18.1-16.75S643.908,691.229,653.89,691.229Z"/><path class="cls-5" d="M290.325,354.053l2.686-15.013a2.645,2.645,0,0,1,4.377-1.543l10.876,9.694a3.586,3.586,0,0,1-1.044,6.012l-12.782,4.865a4.068,4.068,0,0,0-2.574,3.349l-1.747,13.612a2.932,2.932,0,0,1-4.911,1.863L274.869,367.7a3.872,3.872,0,0,1,.822-6.282l6.272-2.344,6.429-2.4A3.642,3.642,0,0,0,290.325,354.053Z"/><path class="cls-5" d="M401.481,355.587l15.235.7a2.645,2.645,0,0,1,2.1,4.137l-8.191,12.05a3.586,3.586,0,0,1-6.1-.25l-6.493-12.038a4.066,4.066,0,0,0-3.656-2.114l-13.724.045a2.932,2.932,0,0,1-2.489-4.625l7.763-11.449a3.872,3.872,0,0,1,6.336,0l3.142,5.912,3.222,6.06A3.643,3.643,0,0,0,401.481,355.587Z"/><path class="cls-5" d="M188.952,400.439l13.764-9.376a2.9,2.9,0,0,1,4.556,2.238l.773,15.9a3.913,3.913,0,0,1-5.488,3.779l-13.586-6.262a4.445,4.445,0,0,0-4.583.549l-11.953,9.038a3.21,3.21,0,0,1-5.215-2.41l-.752-15.095A4.225,4.225,0,0,1,172,394.641l6.633,3.106,6.8,3.184A3.983,3.983,0,0,0,188.952,400.439Z"/><path class="cls-5" d="M467.566,876.785c-225.16,0-408.342-183.181-408.342-408.341S242.406,60.1,467.566,60.1,875.907,243.284,875.907,468.444,692.725,876.785,467.566,876.785Zm0-776.192c-202.834,0-367.851,165.017-367.851,367.851S264.732,836.3,467.566,836.3s367.85-165.017,367.85-367.851S670.4,100.593,467.566,100.593Z"/><path class="cls-6" d="M373.218,169.741V165.2h2.722v4.538h8.62V172.1H364.6v-2.359Zm-7.939,14.746a11.073,11.073,0,0,1,.59-3.653,8.464,8.464,0,0,1,1.747-2.971,7.768,7.768,0,0,1,2.9-1.974,12.065,12.065,0,0,1,8.122,0,7.8,7.8,0,0,1,2.905,1.974,8.488,8.488,0,0,1,1.744,2.971,11.047,11.047,0,0,1,.59,3.653v2.267H390V166.565h2.723v38.382H390V189.114h-6.125V196.1a10.992,10.992,0,0,1-.59,3.675,8.538,8.538,0,0,1-1.744,2.949,7.839,7.839,0,0,1-2.905,1.974,12.065,12.065,0,0,1-8.122,0,7.8,7.8,0,0,1-2.9-1.974,8.514,8.514,0,0,1-1.747-2.949,11.018,11.018,0,0,1-.59-3.675Zm9.3,18.555a6.068,6.068,0,0,0,4.967-1.952,7.582,7.582,0,0,0,1.609-4.99V184.487a7.594,7.594,0,0,0-1.609-4.993,7.3,7.3,0,0,0-9.935,0A7.579,7.579,0,0,0,368,184.487V196.1a7.567,7.567,0,0,0,1.612,4.99A6.061,6.061,0,0,0,374.581,203.042Zm23.138-36.477h2.722v38.382h-2.722Z"/><path class="cls-6" d="M416.546,177.68a16.514,16.514,0,0,1,.612-4.605,9.281,9.281,0,0,1,2-3.652A9.469,9.469,0,0,1,422.738,167a16.753,16.753,0,0,1,10.752,0,9.473,9.473,0,0,1,3.586,2.426,9.269,9.269,0,0,1,2,3.652,16.514,16.514,0,0,1,.612,4.605v5.9h9.3V166.565h2.722v38.382h-2.722V185.938h-9.3v7.894a16.5,16.5,0,0,1-.612,4.605,9.273,9.273,0,0,1-2,3.653,9.471,9.471,0,0,1-3.586,2.425,16.735,16.735,0,0,1-10.752,0,9.467,9.467,0,0,1-3.583-2.425,9.285,9.285,0,0,1-2-3.653,16.5,16.5,0,0,1-.612-4.605Zm11.57,25.362a11.321,11.321,0,0,0,4.195-.681,6.9,6.9,0,0,0,2.747-1.905,7.169,7.169,0,0,0,1.473-2.905,14.92,14.92,0,0,0,.432-3.719V177.68a14.92,14.92,0,0,0-.432-3.719,7.169,7.169,0,0,0-1.473-2.905,6.911,6.911,0,0,0-2.747-1.905,13.338,13.338,0,0,0-8.415,0,6.912,6.912,0,0,0-2.722,1.905,7.134,7.134,0,0,0-1.474,2.905,14.92,14.92,0,0,0-.432,3.719v16.152a14.92,14.92,0,0,0,.432,3.719,7.134,7.134,0,0,0,1.474,2.905,6.9,6.9,0,0,0,2.722,1.905A11.293,11.293,0,0,0,428.116,203.042Z"/><path class="cls-6" d="M467.813,174.958a10.113,10.113,0,0,1,.612-3.583,7.911,7.911,0,0,1,1.77-2.814,7.716,7.716,0,0,1,2.835-1.813,11.989,11.989,0,0,1,7.712,0,7.762,7.762,0,0,1,2.836,1.813,7.9,7.9,0,0,1,1.769,2.814,10.136,10.136,0,0,1,.612,3.583v7.712h6.58v-16.1h2.722v38.382h-2.722V185.029h-6.58v11.525a10.073,10.073,0,0,1-.612,3.606,7.942,7.942,0,0,1-1.769,2.791,7.777,7.777,0,0,1-2.836,1.814,11.989,11.989,0,0,1-7.712,0,7.731,7.731,0,0,1-2.835-1.814,7.958,7.958,0,0,1-1.77-2.791,10.051,10.051,0,0,1-.612-3.606Zm9.072,28.084a6.222,6.222,0,0,0,4.674-1.725,6.536,6.536,0,0,0,1.678-4.763v-21.6a6.536,6.536,0,0,0-1.678-4.763,7.191,7.191,0,0,0-9.345,0,6.536,6.536,0,0,0-1.678,4.763v21.6a6.536,6.536,0,0,0,1.678,4.763A6.217,6.217,0,0,0,476.885,203.042Zm23.366-36.477h2.722v38.382h-2.722Z"/><path class="cls-6" d="M554.694,186.934v2.36h-35.84v-2.36Zm-32.664-8.393h32.437v2.36H519.3V166.565h2.725Zm.451,24.047h32.213v2.359H519.759V194.876h2.722Z"/><path class="cls-6" d="M362.143,256.184h33.971q2.5,0,4.957-.1l1.734-30.754H362.654v-5.312h57.722v5.312H408.934L407.2,255.772a116.242,116.242,0,0,0,15.115-1.839v5.312a93.062,93.062,0,0,1-14.76,1.84q-8.025.411-16.5.411H362.143Zm1.022,32.792q0-8.679,4.958-13.076t13.942-4.389h42.907q8.988,0,13.949,4.389t4.951,13.076q0,8.69-4.951,13.076t-13.949,4.4H382.065q-8.988,0-13.942-4.4T363.165,288.976Zm13.282-38q-.309-6.024-2.656-8.275t-7.358-2.45q5-.207,7.358-2.451t2.656-8.274q.309,6.023,2.606,8.274c1.534,1.5,4,2.313,7.408,2.451-3.411.137-5.874.954-7.408,2.45S376.653,246.955,376.447,250.971Zm-7.152,38q0,5.622,2.962,8.892t9.808,3.268h42.907q6.846,0,9.808-3.268t2.962-8.892q0-5.611-2.962-8.885t-9.808-3.274H382.065q-6.846,0-9.808,3.274T369.3,288.976Zm66.92-68.958h6.129v45.357h-6.129Z"/><path class="cls-6" d="M520.8,263.542q.918-4.295,1.634-8.381t1.229-8.175H478.61v-5.312h45.769q.5-4.284.816-8.375t.512-7.969h-47.1v-5.312h53.632q-.514,12.364-1.684,22.728t-3.423,20.8ZM478.61,288.976q0-8.679,4.951-13.076t13.949-4.389h42.906q8.989,0,13.943,4.389t4.957,13.076q0,8.69-4.957,13.076t-13.943,4.4H497.51q-9,0-13.949-4.4T478.61,288.976Zm6.129,0q0,5.622,2.962,8.892t9.809,3.268h42.906q6.847,0,9.809-3.268t2.962-8.892q0-5.611-2.962-8.885t-9.809-3.274H497.51q-6.847,0-9.809,3.274T484.739,288.976Zm66.914-68.958h6.129v45.357h-6.129Z"/><path class="cls-6" d="M262.948,303.984q-1.111-21.684-9.563-29.787-8.451-8.082-26.488-8.822,18.015-.741,26.488-8.822,8.451-8.081,9.563-29.787,1.11,21.684,9.382,29.787c5.522,5.387,14.389,8.328,26.668,8.822-12.279.494-21.146,3.434-26.668,8.822Q264.047,282.311,262.948,303.984Z"/><path class="cls-6" d="M726.674,363.226Q725.9,348.093,720,342.438t-18.485-6.157q12.571-.516,18.485-6.156,5.9-5.64,6.674-20.788.776,15.132,6.548,20.788c3.854,3.76,10.042,5.812,18.61,6.156-8.568.345-14.756,2.4-18.61,6.157Q727.441,348.1,726.674,363.226Z"/><path class="cls-6" d="M652.63,278.552q-.378-7.4-3.263-10.166t-9.041-3.011q6.148-.253,9.041-3.011T652.63,252.2q.38,7.4,3.2,10.167c1.885,1.839,4.911,2.842,9.1,3.011-4.19.168-7.216,1.172-9.1,3.011S652.883,273.618,652.63,278.552Z"/><path class="cls-6" d="M189.657,344.293q-.378-7.4-3.263-10.167t-9.041-3.011q6.148-.252,9.041-3.01t3.263-10.167q.379,7.4,3.2,10.167c1.885,1.838,4.911,2.842,9.1,3.01-4.19.169-7.216,1.173-9.1,3.011S189.91,339.359,189.657,344.293Z"/></g></g></svg>