<svg xmlns="http://www.w3.org/2000/svg" viewBox="0 0 846.5 78.001"><defs><style>.cls-1{fill:#d2c6e1;}.cls-2,.cls-3{fill:#f7f7f7;}.cls-2{stroke:#fff;stroke-miterlimit:10;stroke-width:5px;}.cls-4,.cls-5{fill:#fff;}.cls-5,.cls-6{font-size:28px;font-family:KoPubWorldDotumLight;letter-spacing:0.04em;}.cls-6{fill:#424143;}</style></defs><g id="레이어_2" data-name="레이어 2"><g id="레이어_1-2" data-name="레이어 1"><path class="cls-1" d="M34,5a34,34,0,0,0,0,68H281.333l20-34-20-34Z"/><path class="cls-2" d="M810,5H562.666l20,34-20,34H810a34,34,0,0,0,0-68Z"/><polygon class="cls-3" points="276.962 75.501 298.433 39.002 276.962 2.5 564.096 2.5 585.568 39.002 564.096 75.501 276.962 75.501"/><path class="cls-4" d="M562.666,5l20,34-20,34H281.333l20-34-20-34H562.666m2.86-5H272.591l4.432,7.535L295.532,39,277.023,70.466,272.591,78H565.526l1.449-2.465,20-34L588.468,39l-1.492-2.535-20-34L565.526,0Z"/><text class="cls-5" transform="translate(97.322 49.002)">선택화면</text><text class="cls-6" transform="translate(373.322 49.002)">결제진행</text><text class="cls-6" transform="translate(648.322 49.002)">결제완료</text></g></g></svg>